<?xml version="1.0" encoding="UTF-8"?>
<svg xmlns="http://www.w3.org/2000/svg" width="32" height="32" viewBox="0 0 32 32">
  <!-- Background -->
  <rect width="32" height="32" rx="6" fill="#D3367A"/>
  
  <!-- Number 6 with gradient effect -->
  <defs>
    <linearGradient id="grad" x1="0%" y1="0%" x2="100%" y2="100%">
      <stop offset="0%" style="stop-color:#FBAD18;stop-opacity:1" />
      <stop offset="100%" style="stop-color:#D3367A;stop-opacity:1" />
    </linearGradient>
  </defs>
  
  <!-- Stylized number 6 -->
  <path d="M16 8c-4.4 0-8 3.6-8 8s3.6 8 8 8 8-3.6 8-8-3.6-8-8-8zm0 14c-3.3 0-6-2.7-6-6s2.7-6 6-6 6 2.7 6 6-2.7 6-6 6z" 
        fill="url(#grad)"/>
  <path d="M16 14c-1.1 0-2 .9-2 2s.9 2 2 2 2-.9 2-2-.9-2-2-2z" 
        fill="#FBAD18"/>
</svg>